# Rhino

v -629.136962890625 -560.26385498046875 211.99172973632813
v 0 -560.26385498046875 211.99172973632813
v -629.136962890625 -592.73712158203125 86.595314025878906
v 0 -592.73712158203125 86.595314025878906
v -629.136962890625 -597.49468994140625 -42.850204467773438
v 0 -597.49468994140625 -42.850204467773438
v -629.136962890625 -574.3140869140625 -170.29209899902344
v 0 -574.3140869140625 -170.29209899902344
v -629.136962890625 -524.2791748046875 -289.77130126953125
v 0 -524.2791748046875 -289.77130126953125
v -629.136962890625 -449.72955322265625 -395.70114135742188
v 0 -449.72955322265625 -395.70114135742188
v -629.136962890625 -354.15109252929688 -483.12844848632813
v 0 -354.15109252929688 -483.12844848632813
v -629.136962890625 -242.01289367675781 -547.96514892578125
v 0 -242.01289367675781 -547.96514892578125
v -629.136962890625 -118.55845642089844 -587.1796875
v 0 -118.55845642089844 -587.1796875
v -629.136962890625 10.439648628234863 -598.93829345703125
v 0 10.439648628234863 -598.93829345703125
v -629.136962890625 138.94960021972656 -582.69122314453125
v 0 138.94960021972656 -582.69122314453125
v -629.136962890625 260.96243286132813 -539.19818115234375
v 0 260.96243286132813 -539.19818115234375
v -629.136962890625 370.77294921875 -470.49282836914063
v 0 370.77294921875 -470.49282836914063
v -629.136962890625 463.24652099609375 -379.78775024414063
v 0 463.24652099609375 -379.78775024414063
v -629.136962890625 534.0592041015625 -271.32418823242188
v 0 534.0592041015625 -271.32418823242188
v -629.136962890625 579.89990234375 -150.17384338378906
v 0 579.89990234375 -150.17384338378906
v -629.136962890625 598.6251220703125 -22.001527786254883
v 0 598.6251220703125 -22.001527786254883
v -629.136962890625 589.3592529296875 107.19955444335938
v 0 589.3592529296875 107.19955444335938
v -629.136962890625 552.53564453125 231.38810729980469
v 0 552.53564453125 231.38810729980469
v -629.136962890625 489.87603759765625 344.7572021484375
v 0 489.87603759765625 344.7572021484375
v -629.136962890625 404.31039428710938 442.005859375
v 0 404.31039428710938 442.005859375
v -629.136962890625 299.83966064453125 518.5867919921875
v 0 299.83966064453125 518.5867919921875
v -629.136962890625 181.3487548828125 570.919189453125
v 0 181.3487548828125 570.919189453125
v -629.136962890625 54.378170013427734 596.5560302734375
v 0 54.378170013427734 596.5560302734375
v -629.136962890625 -75.13507080078125 594.298583984375
v 0 -75.13507080078125 594.298583984375
v -629.136962890625 -201.13508605957031 564.25238037109375
v 0 -201.13508605957031 564.25238037109375
v -629.136962890625 -317.730224609375 507.8223876953125
v 0 -317.730224609375 507.8223876953125
v -629.136962890625 -419.46868896484375 427.64715576171875
v 0 -419.46868896484375 427.64715576171875
v -629.136962890625 -501.59323120117188 327.47564697265625
v 0 -501.59323120117188 327.47564697265625
v -629.136962890625 -560.26385498046875 211.99172973632813
v 0 -560.26385498046875 211.99172973632813
vt 0 0
vt 0 1
vt 0.034482758492231369 0
vt 0.034482758492231369 1
vt 0.068965516984462738 0
vt 0.068965516984462738 1
vt 0.10344827920198441 0
vt 0.10344827920198441 1
vt 0.13793103396892548 0
vt 0.13793103396892548 1
vt 0.17241379618644714 0
vt 0.17241379618644714 1
vt 0.20689655840396881 0
vt 0.20689655840396881 1
vt 0.24137930572032928 0
vt 0.24137930572032928 1
vt 0.27586206793785095 0
vt 0.27586206793785095 1
vt 0.31034481525421143 0
vt 0.31034481525421143 1
vt 0.34482759237289429 0
vt 0.34482759237289429 1
vt 0.37931033968925476 0
vt 0.37931033968925476 1
vt 0.41379311680793762 0
vt 0.41379311680793762 1
vt 0.4482758641242981 0
vt 0.4482758641242981 1
vt 0.48275861144065857 0
vt 0.48275861144065857 1
vt 0.51724135875701904 0
vt 0.51724135875701904 1
vt 0.5517241358757019 0
vt 0.5517241358757019 1
vt 0.58620691299438477 0
vt 0.58620691299438477 1
vt 0.62068963050842285 0
vt 0.62068963050842285 1
vt 0.65517240762710571 0
vt 0.65517240762710571 1
vt 0.68965518474578857 0
vt 0.68965518474578857 1
vt 0.72413790225982666 0
vt 0.72413790225982666 1
vt 0.75862067937850952 0
vt 0.75862067937850952 1
vt 0.79310345649719238 0
vt 0.79310345649719238 1
vt 0.82758623361587524 0
vt 0.82758623361587524 1
vt 0.86206895112991333 0
vt 0.86206895112991333 1
vt 0.89655172824859619 0
vt 0.89655172824859619 1
vt 0.93103450536727905 0
vt 0.93103450536727905 1
vt 0.96551722288131714 0
vt 0.96551722288131714 1
vt 1 0
vt 1 1
vn 0 -0.93528628349304199 0.35389208793640137
vn 0 -0.93528628349304199 0.35389208793640137
vn 0 -0.98949611186981201 0.14455939829349518
vn 0 -0.98949611186981201 0.14455939829349518
vn 0 -0.99743825197219849 -0.071532741189002991
vn 0 -0.99743825197219849 -0.071532741189002991
vn 0 -0.95874124765396118 -0.28428009152412415
vn 0 -0.95874124765396118 -0.28428009152412415
vn 0 -0.87521463632583618 -0.48373481631278992
vn 0 -0.87521463632583618 -0.48373481631278992
vn 0 -0.75076389312744141 -0.66057062149047852
vn 0 -0.75076389312744141 -0.66057062149047852
vn 0 -0.59120827913284302 -0.80651891231536865
vn 0 -0.59120827913284302 -0.80651891231536865
vn 0 -0.40400844812393188 -0.91475522518157959
vn 0 -0.40400844812393188 -0.91475522518157959
vn 0 -0.1979176253080368 -0.98021864891052246
vn 0 -0.1979176253080368 -0.98021864891052246
vn 0 0.017427610233426094 -0.9998481273651123
vn 0 0.017427610233426094 -0.9998481273651123
vn 0 0.23195795714855194 -0.97272580862045288
vn 0 0.23195795714855194 -0.97272580862045288
vn 0 0.43564221262931824 -0.90011990070343018
vn 0 0.43564221262931824 -0.90011990070343018
vn 0 0.61895632743835449 -0.78542542457580566
vn 0 0.61895632743835449 -0.78542542457580566
vn 0 0.77332872152328491 -0.63400530815124512
vn 0 0.77332872152328491 -0.63400530815124512
vn 0 0.89154112339019775 -0.45293980836868286
vn 0 0.89154112339019775 -0.45293980836868286
vn 0 0.96806603670120239 -0.25069534778594971
vn 0 0.96806603670120239 -0.25069534778594971
vn 0 0.99932527542114258 -0.036728635430335999
vn 0 0.99932527542114258 -0.036728635430335999
vn 0 0.98385715484619141 0.17895545065402985
vn 0 0.98385715484619141 0.17895545065402985
vn 0 0.92238503694534302 0.38627177476882935
vn 0 0.92238503694534302 0.38627177476882935
vn 0 0.81778311729431152 0.57552647590637207
vn 0 0.81778311729431152 0.57552647590637207
vn 0 0.67494267225265503 0.73787021636962891
vn 0 0.67494267225265503 0.73787021636962891
vn 0 0.50054258108139038 0.86571192741394043
vn 0 0.50054258108139038 0.86571192741394043
vn 0 0.30273771286010742 0.95307391881942749
vn 0 0.30273771286010742 0.95307391881942749
vn 0 0.09077715128660202 0.99587124586105347
vn 0 0.09077715128660202 0.99587124586105347
vn 0 -0.12542805075645447 0.99210274219512939
vn 0 -0.12542805075645447 0.99210274219512939
vn 0 -0.33576837182044983 0.94194459915161133
vn 0 -0.33576837182044983 0.94194459915161133
vn 0 -0.53040856122970581 0.84774214029312134
vn 0 -0.53040856122970581 0.84774214029312134
vn 0 -0.70024740695953369 0.71390026807785034
vn 0 -0.70024740695953369 0.71390026807785034
vn 0 -0.83734345436096191 0.54667717218399048
vn 0 -0.83734345436096191 0.54667717218399048
vn 0 -0.93528628349304199 0.35389208793640137
vn 0 -0.93528628349304199 0.35389208793640137
f 1/1/1 3/3/3 4/4/4 2/2/2
f 3/3/3 5/5/5 6/6/6 4/4/4
f 5/5/5 7/7/7 8/8/8 6/6/6
f 7/7/7 9/9/9 10/10/10 8/8/8
f 9/9/9 11/11/11 12/12/12 10/10/10
f 11/11/11 13/13/13 14/14/14 12/12/12
f 13/13/13 15/15/15 16/16/16 14/14/14
f 15/15/15 17/17/17 18/18/18 16/16/16
f 17/17/17 19/19/19 20/20/20 18/18/18
f 19/19/19 21/21/21 22/22/22 20/20/20
f 21/21/21 23/23/23 24/24/24 22/22/22
f 23/23/23 25/25/25 26/26/26 24/24/24
f 25/25/25 27/27/27 28/28/28 26/26/26
f 27/27/27 29/29/29 30/30/30 28/28/28
f 29/29/29 31/31/31 32/32/32 30/30/30
f 31/31/31 33/33/33 34/34/34 32/32/32
f 33/33/33 35/35/35 36/36/36 34/34/34
f 35/35/35 37/37/37 38/38/38 36/36/36
f 37/37/37 39/39/39 40/40/40 38/38/38
f 39/39/39 41/41/41 42/42/42 40/40/40
f 41/41/41 43/43/43 44/44/44 42/42/42
f 43/43/43 45/45/45 46/46/46 44/44/44
f 45/45/45 47/47/47 48/48/48 46/46/46
f 47/47/47 49/49/49 50/50/50 48/48/48
f 49/49/49 51/51/51 52/52/52 50/50/50
f 51/51/51 53/53/53 54/54/54 52/52/52
f 53/53/53 55/55/55 56/56/56 54/54/54
f 55/55/55 57/57/57 58/58/58 56/56/56
f 57/57/57 59/59/59 60/60/60 58/58/58
